<svg width="1440" height="641" viewBox="0 0 1440 641" fill="none" xmlns="http://www.w3.org/2000/svg">
<g clip-path="url(#clip0_1461_7063)">
<rect width="1440" height="641" fill="#F7F6F6"/>
<g clip-path="url(#clip1_1461_7063)">
<path d="M1522.49 492.897C1636.8 492.897 1729.47 400.248 1729.47 285.96C1729.47 171.672 1636.8 79.0234 1522.49 79.0234C1408.18 79.0234 1315.51 171.672 1315.51 285.96C1315.51 400.248 1408.18 492.897 1522.49 492.897Z" stroke="#F89A5B" stroke-opacity="0.2" stroke-miterlimit="10"/>
<path d="M1522.49 493.104C1636.8 493.104 1729.47 400.455 1729.47 286.167C1729.47 171.879 1636.8 79.2305 1522.49 79.2305C1408.18 79.2305 1315.51 171.879 1315.51 286.167C1315.51 400.455 1408.18 493.104 1522.49 493.104Z" stroke="#F89A5B" stroke-opacity="0.2" stroke-miterlimit="10"/>
<path d="M1668.84 432.907C1749.67 352.093 1749.67 221.067 1668.84 140.254C1588.01 59.4398 1456.96 59.4398 1376.13 140.254C1295.3 221.068 1295.3 352.093 1376.13 432.907C1456.96 513.72 1588.01 513.72 1668.84 432.907Z" stroke="#F89A5B" stroke-opacity="0.2" stroke-miterlimit="10"/>
<path d="M1522.48 494.135C1636.79 494.135 1729.46 401.487 1729.46 287.199C1729.46 172.91 1636.79 80.2617 1522.48 80.2617C1408.17 80.2617 1315.51 172.91 1315.51 287.199C1315.51 401.487 1408.17 494.135 1522.48 494.135Z" stroke="#F89A5B" stroke-opacity="0.2" stroke-miterlimit="10"/>
<path d="M1522.48 494.956C1636.79 494.956 1729.46 402.307 1729.46 288.019C1729.46 173.731 1636.79 81.082 1522.48 81.082C1408.17 81.082 1315.5 173.731 1315.5 288.019C1315.5 402.307 1408.17 494.956 1522.48 494.956Z" stroke="#F89A5B" stroke-opacity="0.2" stroke-miterlimit="10"/>
<path d="M1522.46 495.989C1636.77 495.989 1729.44 403.34 1729.44 289.052C1729.44 174.764 1636.77 82.1152 1522.46 82.1152C1408.15 82.1152 1315.49 174.764 1315.49 289.052C1315.49 403.34 1408.15 495.989 1522.46 495.989Z" stroke="#F89A5B" stroke-opacity="0.2" stroke-miterlimit="10"/>
<path d="M1522.44 497.227C1636.75 497.227 1729.42 404.578 1729.42 290.29C1729.42 176.002 1636.75 83.3535 1522.44 83.3535C1408.13 83.3535 1315.46 176.002 1315.46 290.29C1315.46 404.578 1408.13 497.227 1522.44 497.227Z" stroke="#F89A5B" stroke-opacity="0.2" stroke-miterlimit="10"/>
<path d="M1522.4 498.669C1636.72 498.669 1729.38 406.02 1729.38 291.732C1729.38 177.444 1636.72 84.7949 1522.4 84.7949C1408.09 84.7949 1315.43 177.444 1315.43 291.732C1315.43 406.02 1408.09 498.669 1522.4 498.669Z" stroke="#F89A5B" stroke-opacity="0.2" stroke-miterlimit="10"/>
<path d="M1522.36 500.315C1636.67 500.315 1729.33 407.666 1729.33 293.378C1729.33 179.09 1636.67 86.4414 1522.36 86.4414C1408.04 86.4414 1315.38 179.09 1315.38 293.378C1315.38 407.666 1408.04 500.315 1522.36 500.315Z" stroke="#F89A5B" stroke-opacity="0.2" stroke-miterlimit="10"/>
<path d="M1522.28 502.167C1636.59 502.167 1729.26 409.518 1729.26 295.23C1729.26 180.942 1636.59 88.293 1522.28 88.293C1407.97 88.293 1315.3 180.942 1315.3 295.23C1315.3 409.518 1407.97 502.167 1522.28 502.167Z" stroke="#F89A5B" stroke-opacity="0.2" stroke-miterlimit="10"/>
<path d="M1522.18 504.227C1636.49 504.227 1729.16 411.578 1729.16 297.29C1729.16 183.002 1636.49 90.3535 1522.18 90.3535C1407.87 90.3535 1315.2 183.002 1315.2 297.29C1315.2 411.578 1407.87 504.227 1522.18 504.227Z" stroke="#F89A5B" stroke-opacity="0.2" stroke-miterlimit="10"/>
<path d="M1522.04 506.489C1636.35 506.489 1729.01 413.84 1729.01 299.552C1729.01 185.264 1636.35 92.6152 1522.04 92.6152C1407.72 92.6152 1315.06 185.264 1315.06 299.552C1315.06 413.84 1407.72 506.489 1522.04 506.489Z" stroke="#F89A5B" stroke-opacity="0.2" stroke-miterlimit="10"/>
<path d="M1521.86 508.96C1636.17 508.96 1728.84 416.311 1728.84 302.023C1728.84 187.735 1636.17 95.0859 1521.86 95.0859C1407.55 95.0859 1314.88 187.735 1314.88 302.023C1314.88 416.311 1407.55 508.96 1521.86 508.96Z" stroke="#F89A5B" stroke-opacity="0.2" stroke-miterlimit="10"/>
<path d="M1521.63 511.628C1635.94 511.628 1728.61 418.979 1728.61 304.691C1728.61 190.403 1635.94 97.7539 1521.63 97.7539C1407.32 97.7539 1314.65 190.403 1314.65 304.691C1314.65 418.979 1407.32 511.628 1521.63 511.628Z" stroke="#F89A5B" stroke-opacity="0.2" stroke-miterlimit="10"/>
<path d="M1521.35 514.501C1635.66 514.501 1728.32 421.852 1728.32 307.564C1728.32 193.276 1635.66 100.627 1521.35 100.627C1407.04 100.627 1314.37 193.276 1314.37 307.564C1314.37 421.852 1407.04 514.501 1521.35 514.501Z" stroke="#F89A5B" stroke-opacity="0.2" stroke-miterlimit="10"/>
<path d="M1521 517.573C1635.31 517.573 1727.98 424.924 1727.98 310.636C1727.98 196.348 1635.31 103.699 1521 103.699C1406.69 103.699 1314.02 196.348 1314.02 310.636C1314.02 424.924 1406.69 517.573 1521 517.573Z" stroke="#F89A5B" stroke-opacity="0.2" stroke-miterlimit="10"/>
<path d="M1520.58 520.838C1634.89 520.838 1727.56 428.19 1727.56 313.902C1727.56 199.614 1634.89 106.965 1520.58 106.965C1406.27 106.965 1313.6 199.614 1313.6 313.902C1313.6 428.19 1406.27 520.838 1520.58 520.838Z" stroke="#F89A5B" stroke-opacity="0.2" stroke-miterlimit="10"/>
<path d="M1520.07 524.309C1634.38 524.309 1727.05 431.66 1727.05 317.372C1727.05 203.084 1634.38 110.436 1520.07 110.436C1405.76 110.436 1313.09 203.084 1313.09 317.372C1313.09 431.66 1405.76 524.309 1520.07 524.309Z" stroke="#F89A5B" stroke-opacity="0.2" stroke-miterlimit="10"/>
<path d="M1519.47 527.971C1633.78 527.971 1726.45 435.323 1726.45 321.034C1726.45 206.746 1633.78 114.098 1519.47 114.098C1405.16 114.098 1312.49 206.746 1312.49 321.034C1312.49 435.323 1405.16 527.971 1519.47 527.971Z" stroke="#F89A5B" stroke-opacity="0.2" stroke-miterlimit="10"/>
<path d="M1518.76 531.823C1633.08 531.823 1725.74 439.174 1725.74 324.886C1725.74 210.598 1633.08 117.949 1518.76 117.949C1404.45 117.949 1311.79 210.598 1311.79 324.886C1311.79 439.174 1404.45 531.823 1518.76 531.823Z" stroke="#F89A5B" stroke-opacity="0.2" stroke-miterlimit="10"/>
<path d="M1517.94 535.862C1632.25 535.862 1724.92 443.213 1724.92 328.925C1724.92 214.637 1632.25 121.988 1517.94 121.988C1403.63 121.988 1310.96 214.637 1310.96 328.925C1310.96 443.213 1403.63 535.862 1517.94 535.862Z" stroke="#F89A5B" stroke-opacity="0.2" stroke-miterlimit="10"/>
<path d="M1516.99 540.085C1631.3 540.085 1723.97 447.436 1723.97 333.148C1723.97 218.86 1631.3 126.211 1516.99 126.211C1402.68 126.211 1310.01 218.86 1310.01 333.148C1310.01 447.436 1402.68 540.085 1516.99 540.085Z" stroke="#F89A5B" stroke-opacity="0.2" stroke-miterlimit="10"/>
<path d="M1515.9 544.485C1630.21 544.485 1722.88 451.836 1722.88 337.548C1722.88 223.26 1630.21 130.611 1515.9 130.611C1401.59 130.611 1308.92 223.26 1308.92 337.548C1308.92 451.836 1401.59 544.485 1515.9 544.485Z" stroke="#F89A5B" stroke-opacity="0.2" stroke-miterlimit="10"/>
<path d="M1514.65 549.063C1628.96 549.063 1721.63 456.414 1721.63 342.126C1721.63 227.838 1628.96 135.189 1514.65 135.189C1400.34 135.189 1307.67 227.838 1307.67 342.126C1307.67 456.414 1400.34 549.063 1514.65 549.063Z" stroke="#F89A5B" stroke-opacity="0.2" stroke-miterlimit="10"/>
<path d="M1513.25 553.805C1627.56 553.805 1720.22 461.156 1720.22 346.868C1720.22 232.58 1627.56 139.932 1513.25 139.932C1398.93 139.932 1306.27 232.58 1306.27 346.868C1306.27 461.156 1398.93 553.805 1513.25 553.805Z" stroke="#F89A5B" stroke-opacity="0.2" stroke-miterlimit="10"/>
<path d="M1511.66 558.706C1625.97 558.706 1718.63 466.057 1718.63 351.769C1718.63 237.481 1625.97 144.832 1511.66 144.832C1397.34 144.832 1304.68 237.481 1304.68 351.769C1304.68 466.057 1397.34 558.706 1511.66 558.706Z" stroke="#F89A5B" stroke-opacity="0.2" stroke-miterlimit="10"/>
<path d="M1509.87 563.762C1624.18 563.762 1716.85 471.113 1716.85 356.825C1716.85 242.537 1624.18 149.889 1509.87 149.889C1395.56 149.889 1302.89 242.537 1302.89 356.825C1302.89 471.113 1395.56 563.762 1509.87 563.762Z" stroke="#F89A5B" stroke-opacity="0.2" stroke-miterlimit="10"/>
<path d="M1507.88 568.96C1622.19 568.96 1714.86 476.311 1714.86 362.023C1714.86 247.735 1622.19 155.086 1507.88 155.086C1393.57 155.086 1300.9 247.735 1300.9 362.023C1300.9 476.311 1393.57 568.96 1507.88 568.96Z" stroke="#F89A5B" stroke-opacity="0.2" stroke-miterlimit="10"/>
<path d="M1505.66 574.294C1619.97 574.294 1712.64 481.645 1712.64 367.357C1712.64 253.069 1619.97 160.42 1505.66 160.42C1391.35 160.42 1298.69 253.069 1298.69 367.357C1298.69 481.645 1391.35 574.294 1505.66 574.294Z" stroke="#F89A5B" stroke-opacity="0.2" stroke-miterlimit="10"/>
<path d="M1503.21 579.749C1617.53 579.749 1710.19 487.1 1710.19 372.812C1710.19 258.524 1617.53 165.875 1503.21 165.875C1388.9 165.875 1296.24 258.524 1296.24 372.812C1296.24 487.1 1388.9 579.749 1503.21 579.749Z" stroke="#F89A5B" stroke-opacity="0.2" stroke-miterlimit="10"/>
<path d="M1500.52 585.315C1614.83 585.315 1707.49 492.666 1707.49 378.378C1707.49 264.09 1614.83 171.441 1500.52 171.441C1386.2 171.441 1293.54 264.09 1293.54 378.378C1293.54 492.666 1386.2 585.315 1500.52 585.315Z" stroke="#F89A5B" stroke-opacity="0.2" stroke-miterlimit="10"/>
<path d="M1497.55 590.977C1611.86 590.977 1704.53 498.328 1704.53 384.04C1704.53 269.752 1611.86 177.104 1497.55 177.104C1383.24 177.104 1290.57 269.752 1290.57 384.04C1290.57 498.328 1383.24 590.977 1497.55 590.977Z" stroke="#F89A5B" stroke-opacity="0.2" stroke-miterlimit="10"/>
<path d="M1494.3 596.727C1608.62 596.727 1701.28 504.078 1701.28 389.79C1701.28 275.502 1608.62 182.854 1494.3 182.854C1379.99 182.854 1287.33 275.502 1287.33 389.79C1287.33 504.078 1379.99 596.727 1494.3 596.727Z" stroke="#F89A5B" stroke-opacity="0.2" stroke-miterlimit="10"/>
<path d="M1490.77 602.544C1605.08 602.544 1697.75 509.895 1697.75 395.607C1697.75 281.319 1605.08 188.67 1490.77 188.67C1376.46 188.67 1283.79 281.319 1283.79 395.607C1283.79 509.895 1376.46 602.544 1490.77 602.544Z" stroke="#F89A5B" stroke-opacity="0.2" stroke-miterlimit="10"/>
<path d="M1486.93 608.413C1601.24 608.413 1693.9 515.764 1693.9 401.476C1693.9 287.188 1601.24 194.539 1486.93 194.539C1372.62 194.539 1279.95 287.188 1279.95 401.476C1279.95 515.764 1372.62 608.413 1486.93 608.413Z" stroke="#F89A5B" stroke-opacity="0.2" stroke-miterlimit="10"/>
<path d="M1482.76 614.315C1597.07 614.315 1689.74 521.666 1689.74 407.378C1689.74 293.09 1597.07 200.441 1482.76 200.441C1368.45 200.441 1275.78 293.09 1275.78 407.378C1275.78 521.666 1368.45 614.315 1482.76 614.315Z" stroke="#F89A5B" stroke-opacity="0.2" stroke-miterlimit="10"/>
<path d="M1478.27 620.227C1592.58 620.227 1685.24 527.578 1685.24 413.29C1685.24 299.002 1592.58 206.354 1478.27 206.354C1363.95 206.354 1271.29 299.002 1271.29 413.29C1271.29 527.578 1363.95 620.227 1478.27 620.227Z" stroke="#F89A5B" stroke-opacity="0.2" stroke-miterlimit="10"/>
<path d="M1473.42 626.133C1587.73 626.133 1680.4 533.485 1680.4 419.197C1680.4 304.909 1587.73 212.26 1473.42 212.26C1359.11 212.26 1266.45 304.909 1266.45 419.197C1266.45 533.485 1359.11 626.133 1473.42 626.133Z" stroke="#F89A5B" stroke-opacity="0.2" stroke-miterlimit="10"/>
<path d="M1468.23 632.012C1582.54 632.012 1675.21 539.364 1675.21 425.075C1675.21 310.787 1582.54 218.139 1468.23 218.139C1353.92 218.139 1261.25 310.787 1261.25 425.075C1261.25 539.364 1353.92 632.012 1468.23 632.012Z" stroke="#F89A5B" stroke-opacity="0.2" stroke-miterlimit="10"/>
<path d="M1462.67 637.836C1576.98 637.836 1669.64 545.188 1669.64 430.9C1669.64 316.612 1576.98 223.963 1462.67 223.963C1348.35 223.963 1255.69 316.612 1255.69 430.9C1255.69 545.188 1348.35 637.836 1462.67 637.836Z" stroke="#F89A5B" stroke-opacity="0.2" stroke-miterlimit="10"/>
<path d="M1456.73 643.577C1571.04 643.577 1663.71 550.928 1663.71 436.64C1663.71 322.352 1571.04 229.703 1456.73 229.703C1342.42 229.703 1249.75 322.352 1249.75 436.64C1249.75 550.928 1342.42 643.577 1456.73 643.577Z" stroke="#F89A5B" stroke-opacity="0.2" stroke-miterlimit="10"/>
<path d="M1450.41 649.215C1564.72 649.215 1657.39 556.567 1657.39 442.279C1657.39 327.991 1564.72 235.342 1450.41 235.342C1336.1 235.342 1243.43 327.991 1243.43 442.279C1243.43 556.567 1336.1 649.215 1450.41 649.215Z" stroke="#F89A5B" stroke-opacity="0.2" stroke-miterlimit="10"/>
<path d="M1443.7 654.715C1558.01 654.715 1650.68 562.067 1650.68 447.779C1650.68 333.491 1558.01 240.842 1443.7 240.842C1329.39 240.842 1236.73 333.491 1236.73 447.779C1236.73 562.067 1329.39 654.715 1443.7 654.715Z" stroke="#F89A5B" stroke-opacity="0.2" stroke-miterlimit="10"/>
<path d="M1436.6 660.049C1550.91 660.049 1643.58 567.401 1643.58 453.113C1643.58 338.825 1550.91 246.176 1436.6 246.176C1322.29 246.176 1229.62 338.825 1229.62 453.113C1229.62 567.401 1322.29 660.049 1436.6 660.049Z" stroke="#F89A5B" stroke-opacity="0.2" stroke-miterlimit="10"/>
<path d="M1429.1 665.192C1543.41 665.192 1636.08 572.543 1636.08 458.255C1636.08 343.967 1543.41 251.318 1429.1 251.318C1314.79 251.318 1222.12 343.967 1222.12 458.255C1222.12 572.543 1314.79 665.192 1429.1 665.192Z" stroke="#F89A5B" stroke-opacity="0.2" stroke-miterlimit="10"/>
<path d="M1421.21 670.104C1535.52 670.104 1628.19 577.455 1628.19 463.167C1628.19 348.879 1535.52 256.23 1421.21 256.23C1306.9 256.23 1214.23 348.879 1214.23 463.167C1214.23 577.455 1306.9 670.104 1421.21 670.104Z" stroke="#F89A5B" stroke-opacity="0.2" stroke-miterlimit="10"/>
<path d="M1412.92 674.753C1527.23 674.753 1619.89 582.104 1619.89 467.816C1619.89 353.528 1527.23 260.879 1412.92 260.879C1298.61 260.879 1205.94 353.528 1205.94 467.816C1205.94 582.104 1298.61 674.753 1412.92 674.753Z" stroke="#F89A5B" stroke-opacity="0.2" stroke-miterlimit="10"/>
<path d="M1404.23 679.108C1518.54 679.108 1611.21 586.459 1611.21 472.171C1611.21 357.883 1518.54 265.234 1404.23 265.234C1289.92 265.234 1197.25 357.883 1197.25 472.171C1197.25 586.459 1289.92 679.108 1404.23 679.108Z" stroke="#F89A5B" stroke-opacity="0.2" stroke-miterlimit="10"/>
<path d="M1395.16 683.135C1509.47 683.135 1602.14 590.487 1602.14 476.199C1602.14 361.91 1509.47 269.262 1395.16 269.262C1280.85 269.262 1188.18 361.91 1188.18 476.199C1188.18 590.487 1280.85 683.135 1395.16 683.135Z" stroke="#F89A5B" stroke-opacity="0.2" stroke-miterlimit="10"/>
<path d="M1385.71 686.788C1500.02 686.788 1592.69 594.139 1592.69 479.851C1592.69 365.563 1500.02 272.914 1385.71 272.914C1271.4 272.914 1178.73 365.563 1178.73 479.851C1178.73 594.139 1271.4 686.788 1385.71 686.788Z" stroke="#F89A5B" stroke-opacity="0.2" stroke-miterlimit="10"/>
<path d="M1375.89 690.038C1490.2 690.038 1582.87 597.389 1582.87 483.101C1582.87 368.813 1490.2 276.164 1375.89 276.164C1261.58 276.164 1168.92 368.813 1168.92 483.101C1168.92 597.389 1261.58 690.038 1375.89 690.038Z" stroke="#F89A5B" stroke-opacity="0.2" stroke-miterlimit="10"/>
<path d="M1365.73 692.848C1480.04 692.848 1572.71 600.199 1572.71 485.911C1572.71 371.623 1480.04 278.975 1365.73 278.975C1251.42 278.975 1158.75 371.623 1158.75 485.911C1158.75 600.199 1251.42 692.848 1365.73 692.848Z" stroke="#F89A5B" stroke-opacity="0.2" stroke-miterlimit="10"/>
<path d="M1355.23 695.172C1469.54 695.172 1562.21 602.524 1562.21 488.236C1562.21 373.948 1469.54 281.299 1355.23 281.299C1240.92 281.299 1148.25 373.948 1148.25 488.236C1148.25 602.524 1240.92 695.172 1355.23 695.172Z" stroke="#F89A5B" stroke-opacity="0.2" stroke-miterlimit="10"/>
<path d="M1344.42 696.983C1458.73 696.983 1551.39 604.334 1551.39 490.046C1551.39 375.758 1458.73 283.109 1344.42 283.109C1230.11 283.109 1137.44 375.758 1137.44 490.046C1137.44 604.334 1230.11 696.983 1344.42 696.983Z" stroke="#F89A5B" stroke-opacity="0.2" stroke-miterlimit="10"/>
<path d="M1333.32 698.241C1447.63 698.241 1540.3 605.592 1540.3 491.304C1540.3 377.016 1447.63 284.367 1333.32 284.367C1219.01 284.367 1126.34 377.016 1126.34 491.304C1126.34 605.592 1219.01 698.241 1333.32 698.241Z" stroke="#F89A5B" stroke-opacity="0.2" stroke-miterlimit="10"/>
<path d="M1321.96 698.905C1436.27 698.905 1528.94 606.256 1528.94 491.968C1528.94 377.68 1436.27 285.031 1321.96 285.031C1207.65 285.031 1114.98 377.68 1114.98 491.968C1114.98 606.256 1207.65 698.905 1321.96 698.905Z" stroke="#F89A5B" stroke-opacity="0.2" stroke-miterlimit="10"/>
<path d="M1310.37 698.942C1424.69 698.942 1517.35 606.293 1517.35 492.005C1517.35 377.717 1424.69 285.068 1310.37 285.068C1196.06 285.068 1103.4 377.717 1103.4 492.005C1103.4 606.293 1196.06 698.942 1310.37 698.942Z" stroke="#F89A5B" stroke-opacity="0.2" stroke-miterlimit="10"/>
<path d="M1298.6 698.315C1412.91 698.315 1505.58 605.666 1505.58 491.378C1505.58 377.09 1412.91 284.441 1298.6 284.441C1184.29 284.441 1091.62 377.09 1091.62 491.378C1091.62 605.666 1184.29 698.315 1298.6 698.315Z" stroke="#F89A5B" stroke-opacity="0.2" stroke-miterlimit="10"/>
<path d="M1286.68 696.995C1400.99 696.995 1493.66 604.346 1493.66 490.058C1493.66 375.77 1400.99 283.121 1286.68 283.121C1172.37 283.121 1079.7 375.77 1079.7 490.058C1079.7 604.346 1172.37 696.995 1286.68 696.995Z" stroke="#F89A5B" stroke-opacity="0.2" stroke-miterlimit="10"/>
<path d="M1274.65 694.948C1388.96 694.948 1481.63 602.299 1481.63 488.011C1481.63 373.723 1388.96 281.074 1274.65 281.074C1160.34 281.074 1067.67 373.723 1067.67 488.011C1067.67 602.299 1160.34 694.948 1274.65 694.948Z" stroke="#F89A5B" stroke-opacity="0.2" stroke-miterlimit="10"/>
<path d="M1262.56 692.147C1376.87 692.147 1469.54 599.498 1469.54 485.21C1469.54 370.922 1376.87 278.273 1262.56 278.273C1148.25 278.273 1055.58 370.922 1055.58 485.21C1055.58 599.498 1148.25 692.147 1262.56 692.147Z" stroke="#F89A5B" stroke-opacity="0.2" stroke-miterlimit="10"/>
<path d="M1250.47 688.565C1364.78 688.565 1457.45 595.916 1457.45 481.628C1457.45 367.34 1364.78 274.691 1250.47 274.691C1136.16 274.691 1043.49 367.34 1043.49 481.628C1043.49 595.916 1136.16 688.565 1250.47 688.565Z" stroke="#F89A5B" stroke-opacity="0.2" stroke-miterlimit="10"/>
<path d="M1238.43 684.18C1352.74 684.18 1445.41 591.531 1445.41 477.243C1445.41 362.955 1352.74 270.307 1238.43 270.307C1124.12 270.307 1031.45 362.955 1031.45 477.243C1031.45 591.531 1124.12 684.18 1238.43 684.18Z" stroke="#F89A5B" stroke-opacity="0.2" stroke-miterlimit="10"/>
<path d="M1226.49 678.971C1340.81 678.971 1433.47 586.323 1433.47 472.035C1433.47 357.746 1340.81 265.098 1226.49 265.098C1112.18 265.098 1019.52 357.746 1019.52 472.035C1019.52 586.323 1112.18 678.971 1226.49 678.971Z" stroke="#F89A5B" stroke-opacity="0.2" stroke-miterlimit="10"/>
<path d="M1214.74 672.922C1329.05 672.922 1421.71 580.274 1421.71 465.986C1421.71 351.698 1329.05 259.049 1214.74 259.049C1100.43 259.049 1007.76 351.698 1007.76 465.986C1007.76 580.274 1100.43 672.922 1214.74 672.922Z" stroke="#F89A5B" stroke-opacity="0.2" stroke-miterlimit="10"/>
<path d="M1203.21 666.032C1317.52 666.032 1410.19 573.383 1410.19 459.095C1410.19 344.807 1317.52 252.158 1203.21 252.158C1088.9 252.158 996.232 344.807 996.232 459.095C996.232 573.383 1088.9 666.032 1203.21 666.032Z" stroke="#F89A5B" stroke-opacity="0.2" stroke-miterlimit="10"/>
<path d="M1192 658.286C1306.31 658.286 1398.97 565.637 1398.97 451.349C1398.97 337.061 1306.31 244.412 1192 244.412C1077.68 244.412 985.018 337.061 985.018 451.349C985.018 565.637 1077.68 658.286 1192 658.286Z" stroke="#F89A5B" stroke-opacity="0.2" stroke-miterlimit="10"/>
<path d="M1181.16 649.684C1295.47 649.684 1388.14 557.035 1388.14 442.747C1388.14 328.459 1295.47 235.811 1181.16 235.811C1066.85 235.811 974.186 328.459 974.186 442.747C974.186 557.035 1066.85 649.684 1181.16 649.684Z" stroke="#F89A5B" stroke-opacity="0.2" stroke-miterlimit="10"/>
<path d="M1170.78 640.239C1285.09 640.239 1377.76 547.59 1377.76 433.302C1377.76 319.014 1285.09 226.365 1170.78 226.365C1056.47 226.365 963.805 319.014 963.805 433.302C963.805 547.59 1056.47 640.239 1170.78 640.239Z" stroke="#F89A5B" stroke-opacity="0.2" stroke-miterlimit="10"/>
<path d="M1160.93 629.961C1275.24 629.961 1367.91 537.313 1367.91 423.025C1367.91 308.737 1275.24 216.088 1160.93 216.088C1046.62 216.088 953.952 308.737 953.952 423.025C953.952 537.313 1046.62 629.961 1160.93 629.961Z" stroke="#F89A5B" stroke-opacity="0.2" stroke-miterlimit="10"/>
<path d="M1151.69 618.87C1266 618.87 1358.67 526.221 1358.67 411.933C1358.67 297.645 1266 204.996 1151.69 204.996C1037.38 204.996 944.714 297.645 944.714 411.933C944.714 526.221 1037.38 618.87 1151.69 618.87Z" stroke="#F89A5B" stroke-opacity="0.2" stroke-miterlimit="10"/>
<path d="M1143.13 606.989C1257.45 606.989 1350.11 514.34 1350.11 400.052C1350.11 285.764 1257.45 193.115 1143.13 193.115C1028.82 193.115 936.156 285.764 936.156 400.052C936.156 514.34 1028.82 606.989 1143.13 606.989Z" stroke="#F89A5B" stroke-opacity="0.2" stroke-miterlimit="10"/>
<path d="M1135.35 594.356C1249.66 594.356 1342.32 501.707 1342.32 387.419C1342.32 273.131 1249.66 180.482 1135.35 180.482C1021.04 180.482 928.368 273.131 928.368 387.419C928.368 501.707 1021.04 594.356 1135.35 594.356Z" stroke="#F89A5B" stroke-opacity="0.2" stroke-miterlimit="10"/>
<path d="M1128.4 581.01C1242.71 581.01 1335.38 488.362 1335.38 374.074C1335.38 259.785 1242.71 167.137 1128.4 167.137C1014.09 167.137 921.421 259.785 921.421 374.074C921.421 488.362 1014.09 581.01 1128.4 581.01Z" stroke="#F89A5B" stroke-opacity="0.2" stroke-miterlimit="10"/>
<path d="M1122.37 567.008C1236.69 567.008 1329.35 474.36 1329.35 360.072C1329.35 245.784 1236.69 153.135 1122.37 153.135C1008.06 153.135 915.396 245.784 915.396 360.072C915.396 474.36 1008.06 567.008 1122.37 567.008Z" stroke="#F89A5B" stroke-opacity="0.2" stroke-miterlimit="10"/>
<path d="M1117.35 552.401C1231.66 552.401 1324.33 459.752 1324.33 345.464C1324.33 231.176 1231.66 138.527 1117.35 138.527C1003.04 138.527 910.369 231.176 910.369 345.464C910.369 459.752 1003.04 552.401 1117.35 552.401Z" stroke="#F89A5B" stroke-opacity="0.2" stroke-miterlimit="10"/>
<path d="M1113.39 537.262C1227.7 537.262 1320.36 444.613 1320.36 330.325C1320.36 216.037 1227.7 123.389 1113.39 123.389C999.074 123.389 906.407 216.037 906.407 330.325C906.407 444.613 999.074 537.262 1113.39 537.262Z" stroke="#F89A5B" stroke-opacity="0.2" stroke-miterlimit="10"/>
<path d="M1110.56 521.661C1224.87 521.661 1317.54 429.012 1317.54 314.724C1317.54 200.436 1224.87 107.787 1110.56 107.787C996.247 107.787 903.58 200.436 903.58 314.724C903.58 429.012 996.247 521.661 1110.56 521.661Z" stroke="#F89A5B" stroke-opacity="0.2" stroke-miterlimit="10"/>
<path d="M1108.93 505.688C1223.24 505.688 1315.91 413.039 1315.91 298.751C1315.91 184.463 1223.24 91.8145 1108.93 91.8145C994.619 91.8145 901.952 184.463 901.952 298.751C901.952 413.039 994.619 505.688 1108.93 505.688Z" stroke="#F89A5B" stroke-opacity="0.2" stroke-miterlimit="10"/>
<path d="M1108.56 489.432C1222.87 489.432 1315.54 396.783 1315.54 282.495C1315.54 168.207 1222.87 75.5586 1108.56 75.5586C994.25 75.5586 901.583 168.207 901.583 282.495C901.583 396.783 994.25 489.432 1108.56 489.432Z" stroke="#F89A5B" stroke-opacity="0.2" stroke-miterlimit="10"/>
<path d="M1109.5 472.989C1223.81 472.989 1316.48 380.34 1316.48 266.052C1316.48 151.764 1223.81 59.1152 1109.5 59.1152C995.188 59.1152 902.521 151.764 902.521 266.052C902.521 380.34 995.188 472.989 1109.5 472.989Z" stroke="#F89A5B" stroke-opacity="0.2" stroke-miterlimit="10"/>
<path d="M1111.79 456.475C1226.1 456.475 1318.77 363.826 1318.77 249.538C1318.77 135.25 1226.1 42.6016 1111.79 42.6016C997.48 42.6016 904.812 135.25 904.812 249.538C904.812 363.826 997.48 456.475 1111.79 456.475Z" stroke="#F89A5B" stroke-opacity="0.2" stroke-miterlimit="10"/>
<path d="M1115.47 439.999C1229.78 439.999 1322.44 347.35 1322.44 233.062C1322.44 118.774 1229.78 26.125 1115.47 26.125C1001.16 26.125 908.488 118.774 908.488 233.062C908.488 347.35 1001.16 439.999 1115.47 439.999Z" stroke="#F89A5B" stroke-opacity="0.2" stroke-miterlimit="10"/>
<path d="M1120.55 423.684C1234.86 423.684 1327.53 331.035 1327.53 216.747C1327.53 102.459 1234.86 9.81055 1120.55 9.81055C1006.24 9.81055 913.574 102.459 913.574 216.747C913.574 331.035 1006.24 423.684 1120.55 423.684Z" stroke="#F89A5B" stroke-opacity="0.2" stroke-miterlimit="10"/>
<path d="M1127.06 407.657C1241.37 407.657 1334.04 315.008 1334.04 200.72C1334.04 86.432 1241.37 -6.2168 1127.06 -6.2168C1012.75 -6.2168 920.084 86.432 920.084 200.72C920.084 315.008 1012.75 407.657 1127.06 407.657Z" stroke="#F89A5B" stroke-opacity="0.2" stroke-miterlimit="10"/>
<path d="M1135 392.053C1249.31 392.053 1341.98 299.405 1341.98 185.117C1341.98 70.8285 1249.31 -21.8203 1135 -21.8203C1020.69 -21.8203 928.023 70.8285 928.023 185.117C928.023 299.405 1020.69 392.053 1135 392.053Z" stroke="#F89A5B" stroke-opacity="0.2" stroke-miterlimit="10"/>
<path d="M1144.36 377.001C1258.67 377.001 1351.33 284.352 1351.33 170.064C1351.33 55.7757 1258.67 -36.873 1144.36 -36.873C1030.04 -36.873 937.377 55.7757 937.377 170.064C937.377 284.352 1030.04 377.001 1144.36 377.001Z" stroke="#F89A5B" stroke-opacity="0.2" stroke-miterlimit="10"/>
<path d="M1155.1 362.645C1269.41 362.645 1362.08 269.996 1362.08 155.708C1362.08 41.4202 1269.41 -51.2285 1155.1 -51.2285C1040.79 -51.2285 948.123 41.4202 948.123 155.708C948.123 269.996 1040.79 362.645 1155.1 362.645Z" stroke="#F89A5B" stroke-opacity="0.2" stroke-miterlimit="10"/>
<path d="M1167.2 349.129C1281.51 349.129 1374.18 256.481 1374.18 142.193C1374.18 27.9046 1281.51 -64.7441 1167.2 -64.7441C1052.89 -64.7441 960.222 27.9046 960.222 142.193C960.222 256.481 1052.89 349.129 1167.2 349.129Z" stroke="#F89A5B" stroke-opacity="0.2" stroke-miterlimit="10"/>
<path d="M1180.6 336.588C1294.91 336.588 1387.58 243.94 1387.58 129.652C1387.58 15.3636 1294.91 -77.2852 1180.6 -77.2852C1066.29 -77.2852 973.624 15.3636 973.624 129.652C973.624 243.94 1066.29 336.588 1180.6 336.588Z" stroke="#F89A5B" stroke-opacity="0.2" stroke-miterlimit="10"/>
<path d="M1195.24 325.161C1309.55 325.161 1402.22 232.512 1402.22 118.224C1402.22 3.93587 1309.55 -88.7129 1195.24 -88.7129C1080.93 -88.7129 988.261 3.93587 988.261 118.224C988.261 232.512 1080.93 325.161 1195.24 325.161Z" stroke="#F89A5B" stroke-opacity="0.2" stroke-miterlimit="10"/>
<path d="M1211.02 314.981C1325.33 314.981 1418 222.332 1418 108.044C1418 -6.24383 1325.33 -98.8926 1211.02 -98.8926C1096.71 -98.8926 1004.04 -6.24383 1004.04 108.044C1004.04 222.332 1096.71 314.981 1211.02 314.981Z" stroke="#F89A5B" stroke-opacity="0.2" stroke-miterlimit="10"/>
<path d="M1227.85 306.186C1342.16 306.186 1434.83 213.537 1434.83 99.2493C1434.83 -15.0387 1342.16 -107.688 1227.85 -107.688C1113.54 -107.688 1020.88 -15.0387 1020.88 99.2493C1020.88 213.537 1113.54 306.186 1227.85 306.186Z" stroke="#F89A5B" stroke-opacity="0.2" stroke-miterlimit="10"/>
<path d="M1245.62 298.895C1359.93 298.895 1452.6 206.246 1452.6 91.9583C1452.6 -22.3298 1359.93 -114.979 1245.62 -114.979C1131.31 -114.979 1038.64 -22.3298 1038.64 91.9583C1038.64 206.246 1131.31 298.895 1245.62 298.895Z" stroke="#F89A5B" stroke-opacity="0.2" stroke-miterlimit="10"/>
<path d="M1264.19 293.229C1378.5 293.229 1471.17 200.58 1471.17 86.2923C1471.17 -27.9958 1378.5 -120.645 1264.19 -120.645C1149.88 -120.645 1057.21 -27.9958 1057.21 86.2923C1057.21 200.58 1149.88 293.229 1264.19 293.229Z" stroke="#F89A5B" stroke-opacity="0.2" stroke-miterlimit="10"/>
<path d="M1283.41 289.286C1397.72 289.286 1490.39 196.637 1490.39 82.3489C1490.39 -31.9391 1397.72 -124.588 1283.41 -124.588C1169.1 -124.588 1076.43 -31.9391 1076.43 82.3489C1076.43 196.637 1169.1 289.286 1283.41 289.286Z" stroke="#F89A5B" stroke-opacity="0.2" stroke-miterlimit="10"/>
<path d="M1303.13 287.161C1417.44 287.161 1510.11 194.512 1510.11 80.2239C1510.11 -34.0641 1417.44 -126.713 1303.13 -126.713C1188.82 -126.713 1096.15 -34.0641 1096.15 80.2239C1096.15 194.512 1188.82 287.161 1303.13 287.161Z" stroke="#F89A5B" stroke-opacity="0.2" stroke-miterlimit="10"/>
<path d="M1323.17 286.932C1437.48 286.932 1530.14 194.283 1530.14 79.9954C1530.14 -34.2926 1437.48 -126.941 1323.17 -126.941C1208.85 -126.941 1116.19 -34.2926 1116.19 79.9954C1116.19 194.283 1208.85 286.932 1323.17 286.932Z" stroke="#F89A5B" stroke-opacity="0.2" stroke-miterlimit="10"/>
<path d="M1343.34 288.663C1457.65 288.663 1550.32 196.014 1550.32 81.7259C1550.32 -32.5622 1457.65 -125.211 1343.34 -125.211C1229.03 -125.211 1136.36 -32.5622 1136.36 81.7259C1136.36 196.014 1229.03 288.663 1343.34 288.663Z" stroke="#F89A5B" stroke-opacity="0.2" stroke-miterlimit="10"/>
<path d="M1363.44 292.395C1477.75 292.395 1570.42 199.746 1570.42 85.4583C1570.42 -28.8298 1477.75 -121.479 1363.44 -121.479C1249.13 -121.479 1156.46 -28.8298 1156.46 85.4583C1156.46 199.746 1249.13 292.395 1363.44 292.395Z" stroke="#F89A5B" stroke-opacity="0.2" stroke-miterlimit="10"/>
<path d="M1383.27 298.149C1497.58 298.149 1590.25 205.5 1590.25 91.2122C1590.25 -23.0759 1497.58 -115.725 1383.27 -115.725C1268.96 -115.725 1176.29 -23.0759 1176.29 91.2122C1176.29 205.5 1268.96 298.149 1383.27 298.149Z" stroke="#F89A5B" stroke-opacity="0.2" stroke-miterlimit="10"/>
<path d="M1402.61 305.928C1516.92 305.928 1609.59 213.28 1609.59 98.9915C1609.59 -15.2966 1516.92 -107.945 1402.61 -107.945C1288.3 -107.945 1195.63 -15.2966 1195.63 98.9915C1195.63 213.28 1288.3 305.928 1402.61 305.928Z" stroke="#F89A5B" stroke-opacity="0.2" stroke-miterlimit="10"/>
<path d="M1421.25 315.715C1535.56 315.715 1628.22 223.067 1628.22 108.779C1628.22 -5.50944 1535.56 -98.1582 1421.25 -98.1582C1306.93 -98.1582 1214.27 -5.50944 1214.27 108.779C1214.27 223.067 1306.93 315.715 1421.25 315.715Z" stroke="#F89A5B" stroke-opacity="0.2" stroke-miterlimit="10"/>
<path d="M1438.95 327.46C1553.26 327.46 1645.93 234.811 1645.93 120.523C1645.93 6.2347 1553.26 -86.4141 1438.95 -86.4141C1324.64 -86.4141 1231.98 6.2347 1231.98 120.523C1231.98 234.811 1324.64 327.46 1438.95 327.46Z" stroke="#F89A5B" stroke-opacity="0.2" stroke-miterlimit="10"/>
<path d="M1455.5 341.088C1569.81 341.088 1662.48 248.44 1662.48 134.152C1662.48 19.8636 1569.81 -72.7852 1455.5 -72.7852C1341.19 -72.7852 1248.53 19.8636 1248.53 134.152C1248.53 248.44 1341.19 341.088 1455.5 341.088Z" stroke="#F89A5B" stroke-opacity="0.2" stroke-miterlimit="10"/>
<path d="M1470.69 356.504C1585 356.504 1677.67 263.856 1677.67 149.568C1677.67 35.2796 1585 -57.3691 1470.69 -57.3691C1356.38 -57.3691 1263.71 35.2796 1263.71 149.568C1263.71 263.856 1356.38 356.504 1470.69 356.504Z" stroke="#F89A5B" stroke-opacity="0.2" stroke-miterlimit="10"/>
<path d="M1484.28 373.588C1598.59 373.588 1691.26 280.94 1691.26 166.652C1691.26 52.3636 1598.59 -40.2852 1484.28 -40.2852C1369.97 -40.2852 1277.3 52.3636 1277.3 166.652C1277.3 280.94 1369.97 373.588 1484.28 373.588Z" stroke="#F89A5B" stroke-opacity="0.2" stroke-miterlimit="10"/>
<path d="M1496.09 392.182C1610.41 392.182 1703.07 299.533 1703.07 185.245C1703.07 70.9573 1610.41 -21.6914 1496.09 -21.6914C1381.78 -21.6914 1289.12 70.9573 1289.12 185.245C1289.12 299.533 1381.78 392.182 1496.09 392.182Z" stroke="#F89A5B" stroke-opacity="0.2" stroke-miterlimit="10"/>
<path d="M1505.93 412.116C1620.24 412.116 1712.9 319.467 1712.9 205.179C1712.9 90.891 1620.24 -1.75781 1505.93 -1.75781C1391.61 -1.75781 1298.95 90.891 1298.95 205.179C1298.95 319.467 1391.61 412.116 1505.93 412.116Z" stroke="#F89A5B" stroke-opacity="0.2" stroke-miterlimit="10"/>
<path d="M1513.61 433.178C1627.92 433.178 1720.59 340.53 1720.59 226.241C1720.59 111.953 1627.92 19.3047 1513.61 19.3047C1399.3 19.3047 1306.63 111.953 1306.63 226.241C1306.63 340.53 1399.3 433.178 1513.61 433.178Z" stroke="#F89A5B" stroke-opacity="0.2" stroke-miterlimit="10"/>
<path d="M1518.99 455.151C1633.3 455.151 1725.97 362.502 1725.97 248.214C1725.97 133.926 1633.3 41.2773 1518.99 41.2773C1404.68 41.2773 1312.01 133.926 1312.01 248.214C1312.01 362.502 1404.68 455.151 1518.99 455.151Z" stroke="#F89A5B" stroke-opacity="0.2" stroke-miterlimit="10"/>
<path d="M1521.93 477.782C1636.24 477.782 1728.91 385.133 1728.91 270.845C1728.91 156.557 1636.24 63.9082 1521.93 63.9082C1407.62 63.9082 1314.95 156.557 1314.95 270.845C1314.95 385.133 1407.62 477.782 1521.93 477.782Z" stroke="#F89A5B" stroke-opacity="0.2" stroke-miterlimit="10"/>
</g>
<g clip-path="url(#clip2_1461_7063)">
<path d="M-16.0415 502.727C141.874 502.727 269.891 374.563 269.891 216.463C269.891 58.364 141.874 -69.8008 -16.0415 -69.8008C-173.957 -69.8008 -301.974 58.364 -301.974 216.463C-301.974 374.563 -173.957 502.727 -16.0415 502.727Z" stroke="#F89A5B" stroke-opacity="0.2" stroke-miterlimit="10"/>
<path d="M-16.0415 502.917C141.874 502.917 269.891 374.752 269.891 216.653C269.891 58.5535 141.874 -69.6113 -16.0415 -69.6113C-173.957 -69.6113 -301.974 58.5535 -301.974 216.653C-301.974 374.752 -173.957 502.917 -16.0415 502.917Z" stroke="#F89A5B" stroke-opacity="0.2" stroke-miterlimit="10"/>
<path d="M-16.0415 503.298C141.874 503.298 269.891 375.133 269.891 217.034C269.891 58.9344 141.874 -69.2305 -16.0415 -69.2305C-173.957 -69.2305 -301.974 58.9344 -301.974 217.034C-301.974 375.133 -173.957 503.298 -16.0415 503.298Z" stroke="#F89A5B" stroke-opacity="0.2" stroke-miterlimit="10"/>
<path d="M-16.0415 503.872C141.874 503.872 269.891 375.707 269.891 217.608C269.891 59.5086 141.874 -68.6562 -16.0415 -68.6562C-173.957 -68.6562 -301.974 59.5086 -301.974 217.608C-301.974 375.707 -173.957 503.872 -16.0415 503.872Z" stroke="#F89A5B" stroke-opacity="0.2" stroke-miterlimit="10"/>
<path d="M-16.0503 504.626C141.866 504.626 269.882 376.461 269.882 218.362C269.882 60.2625 141.866 -67.9023 -16.0503 -67.9023C-173.966 -67.9023 -301.982 60.2625 -301.982 218.362C-301.982 376.461 -173.966 504.626 -16.0503 504.626Z" stroke="#F89A5B" stroke-opacity="0.2" stroke-miterlimit="10"/>
<path d="M-16.0571 505.581C141.859 505.581 269.875 377.416 269.875 219.317C269.875 61.2175 141.859 -66.9473 -16.0571 -66.9473C-173.973 -66.9473 -301.989 61.2175 -301.989 219.317C-301.989 377.416 -173.973 505.581 -16.0571 505.581Z" stroke="#F89A5B" stroke-opacity="0.2" stroke-miterlimit="10"/>
<path d="M-16.0747 506.72C141.841 506.72 269.857 378.555 269.857 220.456C269.857 62.3562 141.841 -65.8086 -16.0747 -65.8086C-173.991 -65.8086 -302.007 62.3562 -302.007 220.456C-302.007 378.555 -173.991 506.72 -16.0747 506.72Z" stroke="#F89A5B" stroke-opacity="0.2" stroke-miterlimit="10"/>
<path d="M-16.0981 508.054C141.818 508.054 269.834 379.889 269.834 221.79C269.834 63.6902 141.818 -64.4746 -16.0981 -64.4746C-174.014 -64.4746 -302.03 63.6902 -302.03 221.79C-302.03 379.889 -174.014 508.054 -16.0981 508.054Z" stroke="#F89A5B" stroke-opacity="0.2" stroke-miterlimit="10"/>
<path d="M-16.1333 509.571C141.783 509.571 269.799 381.406 269.799 223.307C269.799 65.2078 141.783 -62.957 -16.1333 -62.957C-174.049 -62.957 -302.065 65.2078 -302.065 223.307C-302.065 381.406 -174.049 509.571 -16.1333 509.571Z" stroke="#F89A5B" stroke-opacity="0.2" stroke-miterlimit="10"/>
<path d="M-16.1821 511.28C141.734 511.28 269.75 383.115 269.75 225.016C269.75 66.9168 141.734 -61.248 -16.1821 -61.248C-174.098 -61.248 -302.114 66.9168 -302.114 225.016C-302.114 383.115 -174.098 511.28 -16.1821 511.28Z" stroke="#F89A5B" stroke-opacity="0.2" stroke-miterlimit="10"/>
<path d="M-16.2563 513.183C141.66 513.183 269.676 385.018 269.676 226.918C269.676 68.8191 141.66 -59.3457 -16.2563 -59.3457C-174.172 -59.3457 -302.188 68.8191 -302.188 226.918C-302.188 385.018 -174.172 513.183 -16.2563 513.183Z" stroke="#F89A5B" stroke-opacity="0.2" stroke-miterlimit="10"/>
<path d="M-16.3569 515.272C141.559 515.272 269.575 387.108 269.575 229.008C269.575 70.909 141.559 -57.2559 -16.3569 -57.2559C-174.273 -57.2559 -302.289 70.909 -302.289 229.008C-302.289 387.108 -174.273 515.272 -16.3569 515.272Z" stroke="#F89A5B" stroke-opacity="0.2" stroke-miterlimit="10"/>
<path d="M-16.4731 517.548C141.443 517.548 269.459 389.383 269.459 231.284C269.459 73.1844 141.443 -54.9805 -16.4731 -54.9805C-174.389 -54.9805 -302.405 73.1844 -302.405 231.284C-302.405 389.383 -174.389 517.548 -16.4731 517.548Z" stroke="#F89A5B" stroke-opacity="0.2" stroke-miterlimit="10"/>
<path d="M-16.6303 520.009C141.286 520.009 269.302 391.844 269.302 233.745C269.302 75.6453 141.286 -52.5195 -16.6303 -52.5195C-174.546 -52.5195 -302.562 75.6453 -302.562 233.745C-302.562 391.844 -174.546 520.009 -16.6303 520.009Z" stroke="#F89A5B" stroke-opacity="0.2" stroke-miterlimit="10"/>
<path d="M-16.8296 522.665C141.086 522.665 269.103 394.5 269.103 236.401C269.103 78.3015 141.086 -49.8633 -16.8296 -49.8633C-174.746 -49.8633 -302.762 78.3015 -302.762 236.401C-302.762 394.5 -174.746 522.665 -16.8296 522.665Z" stroke="#F89A5B" stroke-opacity="0.2" stroke-miterlimit="10"/>
<path d="M-17.0678 525.495C140.848 525.495 268.864 397.33 268.864 239.231C268.864 81.1316 140.848 -47.0332 -17.0678 -47.0332C-174.984 -47.0332 -303 81.1316 -303 239.231C-303 397.33 -174.984 525.495 -17.0678 525.495Z" stroke="#F89A5B" stroke-opacity="0.2" stroke-miterlimit="10"/>
<path d="M-17.3589 528.515C140.557 528.515 268.573 400.35 268.573 242.25C268.573 84.1512 140.557 -44.0137 -17.3589 -44.0137C-175.275 -44.0137 -303.291 84.1512 -303.291 242.25C-303.291 400.35 -175.275 528.515 -17.3589 528.515Z" stroke="#F89A5B" stroke-opacity="0.2" stroke-miterlimit="10"/>
<path d="M-17.7153 531.718C140.201 531.718 268.217 403.553 268.217 245.454C268.217 87.3543 140.201 -40.8105 -17.7153 -40.8105C-175.631 -40.8105 -303.647 87.3543 -303.647 245.454C-303.647 403.553 -175.631 531.718 -17.7153 531.718Z" stroke="#F89A5B" stroke-opacity="0.2" stroke-miterlimit="10"/>
<path d="M-18.1294 535.095C139.787 535.095 267.803 406.93 267.803 248.831C267.803 90.7312 139.787 -37.4336 -18.1294 -37.4336C-176.045 -37.4336 -304.062 90.7312 -304.062 248.831C-304.062 406.93 -176.045 535.095 -18.1294 535.095Z" stroke="#F89A5B" stroke-opacity="0.2" stroke-miterlimit="10"/>
<path d="M-18.6108 538.647C139.305 538.647 267.321 410.483 267.321 252.383C267.321 94.284 139.305 -33.8809 -18.6108 -33.8809C-176.527 -33.8809 -304.543 94.284 -304.543 252.383C-304.543 410.483 -176.527 538.647 -18.6108 538.647Z" stroke="#F89A5B" stroke-opacity="0.2" stroke-miterlimit="10"/>
<path d="M-19.1821 542.38C138.734 542.38 266.75 414.215 266.75 256.116C266.75 98.0164 138.734 -30.1484 -19.1821 -30.1484C-177.098 -30.1484 -305.114 98.0164 -305.114 256.116C-305.114 414.215 -177.098 542.38 -19.1821 542.38Z" stroke="#F89A5B" stroke-opacity="0.2" stroke-miterlimit="10"/>
<path d="M-19.8364 546.28C138.08 546.28 266.096 418.115 266.096 260.016C266.096 101.917 138.08 -26.248 -19.8364 -26.248C-177.752 -26.248 -305.769 101.917 -305.769 260.016C-305.769 418.115 -177.752 546.28 -19.8364 546.28Z" stroke="#F89A5B" stroke-opacity="0.2" stroke-miterlimit="10"/>
<path d="M-20.5913 550.339C137.325 550.339 265.341 422.174 265.341 264.075C265.341 105.975 137.325 -22.1895 -20.5913 -22.1895C-178.507 -22.1895 -306.523 105.975 -306.523 264.075C-306.523 422.174 -178.507 550.339 -20.5913 550.339Z" stroke="#F89A5B" stroke-opacity="0.2" stroke-miterlimit="10"/>
<path d="M-21.4536 554.562C136.462 554.562 264.479 426.397 264.479 268.297C264.479 110.198 136.462 -17.9668 -21.4536 -17.9668C-179.37 -17.9668 -307.386 110.198 -307.386 268.297C-307.386 426.397 -179.37 554.562 -21.4536 554.562Z" stroke="#F89A5B" stroke-opacity="0.2" stroke-miterlimit="10"/>
<path d="M-22.4233 558.942C135.493 558.942 263.509 430.778 263.509 272.678C263.509 114.579 135.493 -13.5859 -22.4233 -13.5859C-180.339 -13.5859 -308.355 114.579 -308.355 272.678C-308.355 430.778 -180.339 558.942 -22.4233 558.942Z" stroke="#F89A5B" stroke-opacity="0.2" stroke-miterlimit="10"/>
<path d="M-23.5258 563.464C134.39 563.464 262.406 435.299 262.406 277.2C262.406 119.1 134.39 -9.06445 -23.5258 -9.06445C-181.442 -9.06445 -309.458 119.1 -309.458 277.2C-309.458 435.299 -181.442 563.464 -23.5258 563.464Z" stroke="#F89A5B" stroke-opacity="0.2" stroke-miterlimit="10"/>
<path d="M-24.7603 568.126C133.156 568.126 261.172 439.961 261.172 281.862C261.172 123.763 133.156 -4.40234 -24.7603 -4.40234C-182.676 -4.40234 -310.692 123.763 -310.692 281.862C-310.692 439.961 -182.676 568.126 -24.7603 568.126Z" stroke="#F89A5B" stroke-opacity="0.2" stroke-miterlimit="10"/>
<path d="M-26.1371 572.923C131.779 572.923 259.795 444.758 259.795 286.659C259.795 128.559 131.779 0.394531 -26.1371 0.394531C-184.053 0.394531 -312.069 128.559 -312.069 286.659C-312.069 444.758 -184.053 572.923 -26.1371 572.923Z" stroke="#F89A5B" stroke-opacity="0.2" stroke-miterlimit="10"/>
<path d="M-27.6606 577.845C130.255 577.845 258.272 449.68 258.272 291.581C258.272 133.481 130.255 5.31641 -27.6606 5.31641C-185.577 5.31641 -313.593 133.481 -313.593 291.581C-313.593 449.68 -185.577 577.845 -27.6606 577.845Z" stroke="#F89A5B" stroke-opacity="0.2" stroke-miterlimit="10"/>
<path d="M-29.3521 582.882C128.564 582.882 256.58 454.717 256.58 296.618C256.58 138.518 128.564 10.3535 -29.3521 10.3535C-187.268 10.3535 -315.284 138.518 -315.284 296.618C-315.284 454.717 -187.268 582.882 -29.3521 582.882Z" stroke="#F89A5B" stroke-opacity="0.2" stroke-miterlimit="10"/>
<path d="M-31.2163 588.017C126.7 588.017 254.716 459.852 254.716 301.752C254.716 143.653 126.7 15.4883 -31.2163 15.4883C-189.132 15.4883 -317.148 143.653 -317.148 301.752C-317.148 459.852 -189.132 588.017 -31.2163 588.017Z" stroke="#F89A5B" stroke-opacity="0.2" stroke-miterlimit="10"/>
<path d="M-33.2632 593.253C124.653 593.253 252.669 465.088 252.669 306.989C252.669 148.889 124.653 20.7246 -33.2632 20.7246C-191.179 20.7246 -319.195 148.889 -319.195 306.989C-319.195 465.088 -191.179 593.253 -33.2632 593.253Z" stroke="#F89A5B" stroke-opacity="0.2" stroke-miterlimit="10"/>
<path d="M-35.5102 598.556C122.406 598.556 250.422 470.391 250.422 312.292C250.422 154.192 122.406 26.0273 -35.5102 26.0273C-193.426 26.0273 -321.442 154.192 -321.442 312.292C-321.442 470.391 -193.426 598.556 -35.5102 598.556Z" stroke="#F89A5B" stroke-opacity="0.2" stroke-miterlimit="10"/>
<path d="M-37.9545 603.923C119.961 603.923 247.978 475.758 247.978 317.659C247.978 159.559 119.961 31.3945 -37.9545 31.3945C-195.87 31.3945 -323.887 159.559 -323.887 317.659C-323.887 475.758 -195.87 603.923 -37.9545 603.923Z" stroke="#F89A5B" stroke-opacity="0.2" stroke-miterlimit="10"/>
<path d="M-40.6069 609.343C117.309 609.343 245.325 481.178 245.325 323.079C245.325 164.979 117.309 36.8145 -40.6069 36.8145C-198.523 36.8145 -326.539 164.979 -326.539 323.079C-326.539 481.178 -198.523 609.343 -40.6069 609.343Z" stroke="#F89A5B" stroke-opacity="0.2" stroke-miterlimit="10"/>
<path d="M-43.4828 614.784C114.433 614.784 242.449 486.619 242.449 328.52C242.449 170.421 114.433 42.2559 -43.4828 42.2559C-201.399 42.2559 -329.415 170.421 -329.415 328.52C-329.415 486.619 -201.399 614.784 -43.4828 614.784Z" stroke="#F89A5B" stroke-opacity="0.2" stroke-miterlimit="10"/>
<path d="M-46.5903 620.245C111.326 620.245 239.342 492.08 239.342 333.981C239.342 175.882 111.326 47.7168 -46.5903 47.7168C-204.506 47.7168 -332.522 175.882 -332.522 333.981C-332.522 492.08 -204.506 620.245 -46.5903 620.245Z" stroke="#F89A5B" stroke-opacity="0.2" stroke-miterlimit="10"/>
<path d="M-49.9304 625.696C107.986 625.696 236.002 497.531 236.002 339.432C236.002 181.333 107.986 53.168 -49.9304 53.168C-207.846 53.168 -335.863 181.333 -335.863 339.432C-335.863 497.531 -207.846 625.696 -49.9304 625.696Z" stroke="#F89A5B" stroke-opacity="0.2" stroke-miterlimit="10"/>
<path d="M148.665 547.277C260.328 435.484 260.328 254.231 148.665 142.438C37.0015 30.645 -144.041 30.645 -255.704 142.438C-367.368 254.231 -367.368 435.484 -255.704 547.277C-144.041 659.07 37.0016 659.07 148.665 547.277Z" stroke="#F89A5B" stroke-opacity="0.2" stroke-miterlimit="10"/>
<path d="M-57.3645 636.491C100.551 636.491 228.568 508.326 228.568 350.227C228.568 192.128 100.551 63.9629 -57.3645 63.9629C-215.28 63.9629 -343.297 192.128 -343.297 350.227C-343.297 508.326 -215.28 636.491 -57.3645 636.491Z" stroke="#F89A5B" stroke-opacity="0.2" stroke-miterlimit="10"/>
<path d="M-61.4595 641.794C96.4565 641.794 224.473 513.629 224.473 355.53C224.473 197.43 96.4565 69.2656 -61.4595 69.2656C-219.375 69.2656 -347.392 197.43 -347.392 355.53C-347.392 513.629 -219.375 641.794 -61.4595 641.794Z" stroke="#F89A5B" stroke-opacity="0.2" stroke-miterlimit="10"/>
<path d="M-65.8274 646.995C92.0886 646.995 220.105 518.83 220.105 360.731C220.105 202.632 92.0886 74.4668 -65.8274 74.4668C-223.743 74.4668 -351.76 202.632 -351.76 360.731C-351.76 518.83 -223.743 646.995 -65.8274 646.995Z" stroke="#F89A5B" stroke-opacity="0.2" stroke-miterlimit="10"/>
<path d="M-70.4604 652.073C87.4555 652.073 215.472 523.908 215.472 365.809C215.472 207.71 87.4555 79.5449 -70.4604 79.5449C-228.376 79.5449 -356.393 207.71 -356.393 365.809C-356.393 523.908 -228.376 652.073 -70.4604 652.073Z" stroke="#F89A5B" stroke-opacity="0.2" stroke-miterlimit="10"/>
<path d="M-75.3667 656.995C82.5493 656.995 210.565 528.83 210.565 370.731C210.565 212.632 82.5493 84.4668 -75.3667 84.4668C-233.283 84.4668 -361.299 212.632 -361.299 370.731C-361.299 528.83 -233.283 656.995 -75.3667 656.995Z" stroke="#F89A5B" stroke-opacity="0.2" stroke-miterlimit="10"/>
<path d="M-80.5473 661.741C77.3686 661.741 205.385 533.576 205.385 375.477C205.385 217.378 77.3686 89.2129 -80.5473 89.2129C-238.463 89.2129 -366.479 217.378 -366.479 375.477C-366.479 533.576 -238.463 661.741 -80.5473 661.741Z" stroke="#F89A5B" stroke-opacity="0.2" stroke-miterlimit="10"/>
<path d="M-85.9985 666.272C71.9174 666.272 199.934 538.108 199.934 380.008C199.934 221.909 71.9174 93.7441 -85.9985 93.7441C-243.914 93.7441 -371.931 221.909 -371.931 380.008C-371.931 538.108 -243.914 666.272 -85.9985 666.272Z" stroke="#F89A5B" stroke-opacity="0.2" stroke-miterlimit="10"/>
<path d="M-91.7261 670.567C66.1899 670.567 194.206 542.403 194.206 384.303C194.206 226.204 66.1899 98.0391 -91.7261 98.0391C-249.642 98.0391 -377.658 226.204 -377.658 384.303C-377.658 542.403 -249.642 670.567 -91.7261 670.567Z" stroke="#F89A5B" stroke-opacity="0.2" stroke-miterlimit="10"/>
<path d="M-97.727 674.585C60.1889 674.585 188.205 546.42 188.205 388.321C188.205 230.221 60.1889 102.057 -97.727 102.057C-255.643 102.057 -383.659 230.221 -383.659 388.321C-383.659 546.42 -255.643 674.585 -97.727 674.585Z" stroke="#F89A5B" stroke-opacity="0.2" stroke-miterlimit="10"/>
<path d="M-103.993 678.302C53.9233 678.302 181.939 550.137 181.939 392.038C181.939 233.938 53.9233 105.773 -103.993 105.773C-261.909 105.773 -389.925 233.938 -389.925 392.038C-389.925 550.137 -261.909 678.302 -103.993 678.302Z" stroke="#F89A5B" stroke-opacity="0.2" stroke-miterlimit="10"/>
<path d="M-110.516 681.673C47.3999 681.673 175.416 553.508 175.416 395.409C175.416 237.309 47.3999 109.145 -110.516 109.145C-268.432 109.145 -396.448 237.309 -396.448 395.409C-396.448 553.508 -268.432 681.673 -110.516 681.673Z" stroke="#F89A5B" stroke-opacity="0.2" stroke-miterlimit="10"/>
<path d="M-117.294 684.675C40.6216 684.675 168.638 556.51 168.638 398.411C168.638 240.311 40.6216 112.146 -117.294 112.146C-275.21 112.146 -403.227 240.311 -403.227 398.411C-403.227 556.51 -275.21 684.675 -117.294 684.675Z" stroke="#F89A5B" stroke-opacity="0.2" stroke-miterlimit="10"/>
<path d="M-124.324 687.265C33.5923 687.265 161.608 559.1 161.608 401.001C161.608 242.901 33.5923 114.736 -124.324 114.736C-282.24 114.736 -410.256 242.901 -410.256 401.001C-410.256 559.1 -282.24 687.265 -124.324 687.265Z" stroke="#F89A5B" stroke-opacity="0.2" stroke-miterlimit="10"/>
<path d="M-131.574 689.413C26.342 689.413 154.358 561.248 154.358 403.149C154.358 245.05 26.342 116.885 -131.574 116.885C-289.49 116.885 -417.506 245.05 -417.506 403.149C-417.506 561.248 -289.49 689.413 -131.574 689.413Z" stroke="#F89A5B" stroke-opacity="0.2" stroke-miterlimit="10"/>
<path d="M-139.043 691.081C18.8725 691.081 146.889 562.916 146.889 404.817C146.889 246.718 18.8725 118.553 -139.043 118.553C-296.959 118.553 -424.976 246.718 -424.976 404.817C-424.976 562.916 -296.959 691.081 -139.043 691.081Z" stroke="#F89A5B" stroke-opacity="0.2" stroke-miterlimit="10"/>
<path d="M-146.709 692.241C11.2065 692.241 139.223 564.076 139.223 405.977C139.223 247.878 11.2065 119.713 -146.709 119.713C-304.625 119.713 -432.642 247.878 -432.642 405.977C-432.642 564.076 -304.625 692.241 -146.709 692.241Z" stroke="#F89A5B" stroke-opacity="0.2" stroke-miterlimit="10"/>
<path d="M-154.557 692.854C3.35886 692.854 131.375 564.69 131.375 406.59C131.375 248.491 3.35886 120.326 -154.557 120.326C-312.473 120.326 -440.489 248.491 -440.489 406.59C-440.489 564.69 -312.473 692.854 -154.557 692.854Z" stroke="#F89A5B" stroke-opacity="0.2" stroke-miterlimit="10"/>
<path d="M-162.554 692.89C-4.63821 692.89 123.378 564.725 123.378 406.625C123.378 248.526 -4.63821 120.361 -162.554 120.361C-320.47 120.361 -448.486 248.526 -448.486 406.625C-448.486 564.725 -320.47 692.89 -162.554 692.89Z" stroke="#F89A5B" stroke-opacity="0.2" stroke-miterlimit="10"/>
<path d="M-170.687 692.31C-12.771 692.31 115.245 564.145 115.245 406.045C115.245 247.946 -12.771 119.781 -170.687 119.781C-328.603 119.781 -456.619 247.946 -456.619 406.045C-456.619 564.145 -328.603 692.31 -170.687 692.31Z" stroke="#F89A5B" stroke-opacity="0.2" stroke-miterlimit="10"/>
<path d="M-178.924 691.099C-21.0083 691.099 107.008 562.934 107.008 404.835C107.008 246.735 -21.0083 118.57 -178.924 118.57C-336.84 118.57 -464.856 246.735 -464.856 404.835C-464.856 562.934 -336.84 691.099 -178.924 691.099Z" stroke="#F89A5B" stroke-opacity="0.2" stroke-miterlimit="10"/>
<path d="M-187.227 689.206C-29.3111 689.206 98.7051 561.041 98.7051 402.942C98.7051 244.843 -29.3111 116.678 -187.227 116.678C-345.143 116.678 -473.159 244.843 -473.159 402.942C-473.159 561.041 -345.143 689.206 -187.227 689.206Z" stroke="#F89A5B" stroke-opacity="0.2" stroke-miterlimit="10"/>
<path d="M-195.582 686.618C-37.6665 686.618 90.3496 558.453 90.3496 400.354C90.3496 242.255 -37.6665 114.09 -195.582 114.09C-353.498 114.09 -481.515 242.255 -481.515 400.354C-481.515 558.453 -353.498 686.618 -195.582 686.618Z" stroke="#F89A5B" stroke-opacity="0.2" stroke-miterlimit="10"/>
<path d="M-203.927 683.313C-46.0115 683.313 82.0047 555.149 82.0047 397.049C82.0047 238.95 -46.0115 110.785 -203.927 110.785C-361.843 110.785 -489.86 238.95 -489.86 397.049C-489.86 555.149 -361.843 683.313 -203.927 683.313Z" stroke="#F89A5B" stroke-opacity="0.2" stroke-miterlimit="10"/>
<path d="M-212.25 679.265C-54.3343 679.265 73.6819 551.1 73.6819 393C73.6819 234.901 -54.3343 106.736 -212.25 106.736C-370.166 106.736 -498.182 234.901 -498.182 393C-498.182 551.1 -370.166 679.265 -212.25 679.265Z" stroke="#F89A5B" stroke-opacity="0.2" stroke-miterlimit="10"/>
<path d="M-220.497 674.462C-62.5806 674.462 65.4356 546.297 65.4356 388.198C65.4356 230.098 -62.5806 101.934 -220.497 101.934C-378.413 101.934 -506.429 230.098 -506.429 388.198C-506.429 546.297 -378.413 674.462 -220.497 674.462Z" stroke="#F89A5B" stroke-opacity="0.2" stroke-miterlimit="10"/>
<path d="M-228.618 668.876C-70.7017 668.876 57.3145 540.711 57.3145 382.612C57.3145 224.512 -70.7017 96.3477 -228.618 96.3477C-386.534 96.3477 -514.55 224.512 -514.55 382.612C-514.55 540.711 -386.534 668.876 -228.618 668.876Z" stroke="#F89A5B" stroke-opacity="0.2" stroke-miterlimit="10"/>
<path d="M-236.576 662.513C-78.6597 662.513 49.3565 534.348 49.3565 376.249C49.3565 218.149 -78.6597 89.9844 -236.576 89.9844C-394.492 89.9844 -522.508 218.149 -522.508 376.249C-522.508 534.348 -394.492 662.513 -236.576 662.513Z" stroke="#F89A5B" stroke-opacity="0.2" stroke-miterlimit="10"/>
<path d="M-244.323 655.368C-86.4068 655.368 41.6094 527.203 41.6094 369.104C41.6094 211.005 -86.4068 82.8398 -244.323 82.8398C-402.239 82.8398 -530.255 211.005 -530.255 369.104C-530.255 527.203 -402.239 655.368 -244.323 655.368Z" stroke="#F89A5B" stroke-opacity="0.2" stroke-miterlimit="10"/>
<path d="M-251.807 647.427C-93.8912 647.427 34.1251 519.262 34.1251 361.163C34.1251 203.063 -93.8912 74.8984 -251.807 74.8984C-409.723 74.8984 -537.739 203.063 -537.739 361.163C-537.739 519.262 -409.723 647.427 -251.807 647.427Z" stroke="#F89A5B" stroke-opacity="0.2" stroke-miterlimit="10"/>
<path d="M-258.977 638.716C-101.061 638.716 26.9551 510.551 26.9551 352.452C26.9551 194.352 -101.061 66.1875 -258.977 66.1875C-416.893 66.1875 -544.909 194.352 -544.909 352.452C-544.909 510.551 -416.893 638.716 -258.977 638.716Z" stroke="#F89A5B" stroke-opacity="0.2" stroke-miterlimit="10"/>
<path d="M-265.78 629.224C-107.865 629.224 20.1517 501.059 20.1517 342.959C20.1517 184.86 -107.865 56.6953 -265.78 56.6953C-423.696 56.6953 -551.713 184.86 -551.713 342.959C-551.713 501.059 -423.696 629.224 -265.78 629.224Z" stroke="#F89A5B" stroke-opacity="0.2" stroke-miterlimit="10"/>
<path d="M-272.163 618.991C-114.247 618.991 13.7696 490.826 13.7696 332.727C13.7696 174.628 -114.247 46.4629 -272.163 46.4629C-430.079 46.4629 -558.095 174.628 -558.095 332.727C-558.095 490.826 -430.079 618.991 -272.163 618.991Z" stroke="#F89A5B" stroke-opacity="0.2" stroke-miterlimit="10"/>
<path d="M-278.071 608.022C-120.155 608.022 7.86139 479.858 7.86139 321.758C7.86139 163.659 -120.155 35.4941 -278.071 35.4941C-435.987 35.4941 -564.003 163.659 -564.003 321.758C-564.003 479.858 -435.987 608.022 -278.071 608.022Z" stroke="#F89A5B" stroke-opacity="0.2" stroke-miterlimit="10"/>
<path d="M-283.451 596.364C-125.535 596.364 2.48145 468.199 2.48145 310.1C2.48145 152.001 -125.535 23.8359 -283.451 23.8359C-441.367 23.8359 -569.383 152.001 -569.383 310.1C-569.383 468.199 -441.367 596.364 -283.451 596.364Z" stroke="#F89A5B" stroke-opacity="0.2" stroke-miterlimit="10"/>
<path d="M-283.691 409.655C-125.775 409.655 2.24127 281.49 2.24127 123.391C2.24127 -34.7082 -125.775 -162.873 -283.691 -162.873C-441.607 -162.873 -569.623 -34.7082 -569.623 123.391C-569.623 281.49 -441.607 409.655 -283.691 409.655Z" stroke="#F89A5B" stroke-opacity="0.2" stroke-miterlimit="10"/>
<path d="M-277.226 395.763C-119.31 395.763 8.70612 267.598 8.70612 109.499C8.70612 -48.6008 -119.31 -176.766 -277.226 -176.766C-435.142 -176.766 -563.158 -48.6008 -563.158 109.499C-563.158 267.598 -435.142 395.763 -277.226 395.763Z" stroke="#F89A5B" stroke-opacity="0.2" stroke-miterlimit="10"/>
<path d="M-269.81 382.513C-111.894 382.513 16.1221 254.348 16.1221 96.2485C16.1221 -61.8508 -111.894 -190.016 -269.81 -190.016C-427.726 -190.016 -555.742 -61.8508 -555.742 96.2485C-555.742 254.348 -427.726 382.513 -269.81 382.513Z" stroke="#F89A5B" stroke-opacity="0.2" stroke-miterlimit="10"/>
<path d="M-261.448 370.04C-103.532 370.04 24.4844 241.875 24.4844 83.7759C24.4844 -74.3235 -103.532 -202.488 -261.448 -202.488C-419.364 -202.488 -547.38 -74.3235 -547.38 83.7759C-547.38 241.875 -419.364 370.04 -261.448 370.04Z" stroke="#F89A5B" stroke-opacity="0.2" stroke-miterlimit="10"/>
<path d="M-252.188 358.466C-94.272 358.466 33.7442 230.301 33.7442 72.2016C33.7442 -85.8977 -94.272 -214.062 -252.188 -214.062C-410.104 -214.062 -538.12 -85.8977 -538.12 72.2016C-538.12 230.301 -410.104 358.466 -252.188 358.466Z" stroke="#F89A5B" stroke-opacity="0.2" stroke-miterlimit="10"/>
<path d="M-242.085 347.921C-84.1695 347.921 43.8467 219.756 43.8467 61.6567C43.8467 -96.4426 -84.1695 -224.607 -242.085 -224.607C-400.001 -224.607 -528.018 -96.4426 -528.018 61.6567C-528.018 219.756 -400.001 347.921 -242.085 347.921Z" stroke="#F89A5B" stroke-opacity="0.2" stroke-miterlimit="10"/>
<path d="M-231.178 338.526C-73.2623 338.526 54.754 210.362 54.754 52.2622C54.754 -105.837 -73.2623 -234.002 -231.178 -234.002C-389.094 -234.002 -517.11 -105.837 -517.11 52.2622C-517.11 210.362 -389.094 338.526 -231.178 338.526Z" stroke="#F89A5B" stroke-opacity="0.2" stroke-miterlimit="10"/>
<path d="M-219.551 330.403C-61.6353 330.403 66.3809 202.238 66.3809 44.1392C66.3809 -113.96 -61.6353 -242.125 -219.551 -242.125C-377.467 -242.125 -505.483 -113.96 -505.483 44.1392C-505.483 202.238 -377.467 330.403 -219.551 330.403Z" stroke="#F89A5B" stroke-opacity="0.2" stroke-miterlimit="10"/>
<path d="M-207.285 323.683C-49.3687 323.683 78.6475 195.518 78.6475 37.4184C78.6475 -120.681 -49.3687 -248.846 -207.285 -248.846C-365.201 -248.846 -493.217 -120.681 -493.217 37.4184C-493.217 195.518 -365.201 323.683 -207.285 323.683Z" stroke="#F89A5B" stroke-opacity="0.2" stroke-miterlimit="10"/>
<path d="M-194.456 318.446C-36.5396 318.446 91.4766 190.281 91.4766 32.1821C91.4766 -125.917 -36.5396 -254.082 -194.456 -254.082C-352.372 -254.082 -480.388 -125.917 -480.388 32.1821C-480.388 190.281 -352.372 318.446 -194.456 318.446Z" stroke="#F89A5B" stroke-opacity="0.2" stroke-miterlimit="10"/>
<path d="M-181.178 314.806C-23.2622 314.806 104.754 186.641 104.754 28.5415C104.754 -129.558 -23.2622 -257.723 -181.178 -257.723C-339.094 -257.723 -467.11 -129.558 -467.11 28.5415C-467.11 186.641 -339.094 314.806 -181.178 314.806Z" stroke="#F89A5B" stroke-opacity="0.2" stroke-miterlimit="10"/>
<path d="M-167.561 312.847C-9.64505 312.847 118.371 184.682 118.371 26.5825C118.371 -131.517 -9.64505 -259.682 -167.561 -259.682C-325.477 -259.682 -453.493 -131.517 -453.493 26.5825C-453.493 184.682 -325.477 312.847 -167.561 312.847Z" stroke="#F89A5B" stroke-opacity="0.2" stroke-miterlimit="10"/>
<path d="M-153.719 312.638C4.19675 312.638 132.213 184.473 132.213 26.3735C132.213 -131.726 4.19675 -259.891 -153.719 -259.891C-311.635 -259.891 -439.651 -131.726 -439.651 26.3735C-439.651 184.473 -311.635 312.638 -153.719 312.638Z" stroke="#F89A5B" stroke-opacity="0.2" stroke-miterlimit="10"/>
<path d="M-139.788 314.231C18.1284 314.231 146.145 186.067 146.145 27.9673C146.145 -130.132 18.1284 -258.297 -139.788 -258.297C-297.704 -258.297 -425.72 -130.132 -425.72 27.9673C-425.72 186.067 -297.704 314.231 -139.788 314.231Z" stroke="#F89A5B" stroke-opacity="0.2" stroke-miterlimit="10"/>
<path d="M-125.897 317.675C32.019 317.675 160.035 189.51 160.035 31.4106C160.035 -126.689 32.019 -254.854 -125.897 -254.854C-283.813 -254.854 -411.829 -126.689 -411.829 31.4106C-411.829 189.51 -283.813 317.675 -125.897 317.675Z" stroke="#F89A5B" stroke-opacity="0.2" stroke-miterlimit="10"/>
<path d="M-112.206 322.985C45.7104 322.985 173.727 194.82 173.727 36.7212C173.727 -121.378 45.7104 -249.543 -112.206 -249.543C-270.122 -249.543 -398.138 -121.378 -398.138 36.7212C-398.138 194.82 -270.122 322.985 -112.206 322.985Z" stroke="#F89A5B" stroke-opacity="0.2" stroke-miterlimit="10"/>
<path d="M-98.8452 330.171C59.0707 330.171 187.087 202.006 187.087 43.9067C187.087 -114.193 59.0707 -242.357 -98.8452 -242.357C-256.761 -242.357 -384.777 -114.193 -384.777 43.9067C-384.777 202.006 -256.761 330.171 -98.8452 330.171Z" stroke="#F89A5B" stroke-opacity="0.2" stroke-miterlimit="10"/>
<path d="M-85.9751 339.2C71.9409 339.2 199.957 211.035 199.957 52.936C199.957 -105.163 71.9409 -233.328 -85.9751 -233.328C-243.891 -233.328 -371.907 -105.163 -371.907 52.936C-371.907 211.035 -243.891 339.2 -85.9751 339.2Z" stroke="#F89A5B" stroke-opacity="0.2" stroke-miterlimit="10"/>
<path d="M-73.7407 350.036C84.1753 350.036 212.191 221.871 212.191 63.772C212.191 -94.3274 84.1753 -222.492 -73.7407 -222.492C-231.657 -222.492 -359.673 -94.3274 -359.673 63.772C-359.673 221.871 -231.657 350.036 -73.7407 350.036Z" stroke="#F89A5B" stroke-opacity="0.2" stroke-miterlimit="10"/>
<path d="M-62.313 362.614C95.603 362.614 223.619 234.449 223.619 76.3501C223.619 -81.7492 95.603 -209.914 -62.313 -209.914C-220.229 -209.914 -348.245 -81.7492 -348.245 76.3501C-348.245 234.449 -220.229 362.614 -62.313 362.614Z" stroke="#F89A5B" stroke-opacity="0.2" stroke-miterlimit="10"/>
<path d="M-51.8208 376.847C106.095 376.847 234.111 248.682 234.111 90.5825C234.111 -67.5168 106.095 -195.682 -51.8208 -195.682C-209.737 -195.682 -337.753 -67.5168 -337.753 90.5825C-337.753 248.682 -209.737 376.847 -51.8208 376.847Z" stroke="#F89A5B" stroke-opacity="0.2" stroke-miterlimit="10"/>
<path d="M-42.4304 392.61C115.486 392.61 243.502 264.445 243.502 106.346C243.502 -51.7531 115.486 -179.918 -42.4304 -179.918C-200.346 -179.918 -328.363 -51.7531 -328.363 106.346C-328.363 264.445 -200.346 392.61 -42.4304 392.61Z" stroke="#F89A5B" stroke-opacity="0.2" stroke-miterlimit="10"/>
<path d="M-34.2739 409.776C123.642 409.776 251.658 281.612 251.658 123.512C251.658 -34.5871 123.642 -162.752 -34.2739 -162.752C-192.19 -162.752 -320.206 -34.5871 -320.206 123.512C-320.206 281.612 -192.19 409.776 -34.2739 409.776Z" stroke="#F89A5B" stroke-opacity="0.2" stroke-miterlimit="10"/>
<path d="M-27.479 428.173C130.437 428.173 258.453 300.008 258.453 141.909C258.453 -16.1906 130.437 -144.355 -27.479 -144.355C-185.395 -144.355 -313.411 -16.1906 -313.411 141.909C-313.411 300.008 -185.395 428.173 -27.479 428.173Z" stroke="#F89A5B" stroke-opacity="0.2" stroke-miterlimit="10"/>
<path d="M-22.1733 447.614C135.743 447.614 263.759 319.449 263.759 161.35C263.759 3.25076 135.743 -124.914 -22.1733 -124.914C-180.089 -124.914 -308.105 3.25076 -308.105 161.35C-308.105 319.449 -180.089 447.614 -22.1733 447.614Z" stroke="#F89A5B" stroke-opacity="0.2" stroke-miterlimit="10"/>
<path d="M-18.4624 467.894C139.454 467.894 267.47 339.729 267.47 181.629C267.47 23.5301 139.454 -104.635 -18.4624 -104.635C-176.378 -104.635 -304.395 23.5301 -304.395 181.629C-304.395 339.729 -176.378 467.894 -18.4624 467.894Z" stroke="#F89A5B" stroke-opacity="0.2" stroke-miterlimit="10"/>
<path d="M-16.4223 488.778C141.494 488.778 269.51 360.613 269.51 202.514C269.51 44.4148 141.494 -83.75 -16.4223 -83.75C-174.338 -83.75 -302.354 44.4148 -302.354 202.514C-302.354 360.613 -174.338 488.778 -16.4223 488.778Z" stroke="#F89A5B" stroke-opacity="0.2" stroke-miterlimit="10"/>
</g>
</g>
<defs>
<clipPath id="clip0_1461_7063">
<rect width="1440" height="641" fill="white"/>
</clipPath>
<clipPath id="clip1_1461_7063">
<rect width="828" height="826" fill="white" transform="translate(901.524 -127)"/>
</clipPath>
<clipPath id="clip2_1461_7063">
<rect width="858" height="953" fill="white" transform="translate(-588 -260)"/>
</clipPath>
</defs>
</svg>
